<?xml version="1.0" encoding="UTF-8" standalone="no"?>
<svg
   xmlns:dc="http://purl.org/dc/elements/1.1/"
   xmlns:cc="http://creativecommons.org/ns#"
   xmlns:rdf="http://www.w3.org/1999/02/22-rdf-syntax-ns#"
   xmlns:svg="http://www.w3.org/2000/svg"
   xmlns="http://www.w3.org/2000/svg"
   id="svg10"
   xml:space="preserve"
   viewBox="0 0 1024 768"
   y="0px"
   x="0px"
   version="1.1"><metadata
     id="metadata16"><rdf:RDF><cc:Work
         rdf:about=""><dc:format>image/svg+xml</dc:format><dc:type
           rdf:resource="http://purl.org/dc/dcmitype/StillImage" /></cc:Work></rdf:RDF></metadata><defs
     id="defs14" /><g
     transform="translate(26.3)"
     id="logo-group"><path
       stroke-miterlimit="2"
       d="m 248.02,440.04 -47.847,-99.708 -9.1519,-18.786 -56.838,118.49 h 17.983 l 9.6336,-19.909 -10.115,-7.3858 h 65.187 l 13.166,27.295 z m -75.142,-43.03 18.143,-38.053 18.304,38.053 z"
       style="font-variant-ligatures:normal;fill:#1d0844;stroke-width:0;stroke-miterlimit:2"
       id="path4940" /><path
       stroke-miterlimit="2"
       d="m 294.4,327.96 h -25.69 v 112.07 h 25.69 c 24.566,0 63.1,-11.56 63.1,-56.035 0,-44.475 -38.534,-56.035 -63.1,-56.035 z m -20.712,15.735 h 22.8 c 13.808,0 43.03,6.7435 43.03,40.301 0,33.557 -29.222,40.301 -43.03,40.301 h -9.7942 v -71.128 z"
       style="font-variant-ligatures:normal;fill:#3a104b;stroke-width:0;stroke-miterlimit:2"
       id="path4942" /><path
       stroke-miterlimit="2"
       d="m 450.48,327.96 -32.112,75.945 -32.112,-75.945 h -17.983 l 41.103,97.139 8.9914,21.354 8.9914,-21.354 41.103,-97.139 z"
       style="font-variant-ligatures:normal;fill:#571752;stroke-width:0;stroke-miterlimit:2"
       id="path4944" /><path
       stroke-miterlimit="2"
       d="m 654.56,377.42 50.737,-49.452 h -23.442 l -37.571,36.768 -6.4224,6.1013 v -42.87 h -17.983 v 112.07 h 17.983 v -41.264 l -11.56,-8.5097 h 15.093 l 40.461,49.774 h 23.442 z"
       style="font-variant-ligatures:normal;fill:#91255f;stroke-width:0;stroke-miterlimit:2"
       id="path4948" /><path
       stroke-miterlimit="2"
       d="m 726.74,440.04 h 17.983 V 327.96 H 726.74 Z"
       style="font-variant-ligatures:normal;fill:#ae2d65;stroke-width:0;stroke-miterlimit:2"
       id="path4950" /><path
       stroke-miterlimit="2"
       d="m 837.22,327.96 h -70.807 v 15.735 h 26.332 v 96.336 h 18.143 v -87.826 l -11.721,-8.5097 h 38.053 z"
       style="font-variant-ligatures:normal;fill:#cb346c;stroke-width:0;stroke-miterlimit:2"
       id="path4952" /><path
       style="fill:#240a46;stroke-width:0.69446999"
       d="m 537.05,328.74 c -0.52011,-0.006 -1.2414,-0.008 -1.6024,-0.003 -0.36102,0.005 -1.0819,0.027 -1.6024,0.0498 -0.52011,0.0224 -1.2935,0.0668 -1.7183,0.0988 -0.42473,0.0317 -1.1928,0.10078 -1.7067,0.15368 -0.51393,0.0525 -1.3221,0.14827 -1.7955,0.21237 -0.47378,0.0645 -1.226,0.178 -1.6719,0.25252 -0.44597,0.0745 -1.2105,0.2143 -1.699,0.31083 -0.48845,0.0965 -1.2267,0.25253 -1.641,0.34674 -0.41393,0.0946 -1.0916,0.2591 -1.5059,0.36605 -0.41393,0.10658 -1.0568,0.2811 -1.4287,0.38729 -0.37145,0.10618 -1.0406,0.30697 -1.4866,0.44597 -0.44598,0.13901 -1.2537,0.40891 -1.7955,0.59966 -0.54174,0.19074 -1.3958,0.50929 -1.8986,0.70773 -0.50273,0.19886 -1.1989,0.48305 -1.5476,0.63209 -0.34829,0.14905 -0.94483,0.41199 -1.3255,0.58459 -0.38033,0.17221 -1.1869,0.56142 -1.7924,0.86455 -0.60506,0.3031 -1.4653,0.75141 -1.9113,0.9958 -0.44597,0.2448 -1.1148,0.62359 -1.4866,0.84211 -0.37145,0.21855 -0.95372,0.5707 -1.2935,0.78267 -0.33979,0.21198 -1.0086,0.64637 -1.4866,0.96531 -0.47763,0.31895 -1.1727,0.79698 -1.5445,1.0626 -0.37145,0.26566 -0.92746,0.67418 -1.2356,0.9074 -0.30774,0.2336 -0.89003,0.68884 -1.2939,1.0124 -0.4035,0.32318 -1.0638,0.87072 -1.4673,1.2163 -0.40312,0.34597 -1.0113,0.88191 -1.351,1.1912 -0.33979,0.30929 -1.1834,1.1275 -1.8746,1.8183 -0.69117,0.69077 -1.5094,1.5341 -1.8183,1.8739 -0.3089,0.33979 -0.84483,0.94795 -1.1908,1.3514 -0.34597,0.4035 -0.9074,1.0812 -1.248,1.5059 -0.34018,0.42474 -0.86531,1.1024 -1.1661,1.5059 -0.30118,0.4035 -0.76107,1.0375 -1.022,1.4094 -0.26103,0.37145 -0.66954,0.97107 -0.9074,1.3321 -0.23785,0.36103 -0.63285,0.97767 -0.87725,1.3707 -0.2448,0.39308 -0.62668,1.0271 -0.84906,1.4094 -0.22241,0.38227 -0.58189,1.0213 -0.7985,1.4202 -0.217,0.39925 -0.63518,1.2071 -0.92941,1.7955 -0.29423,0.58884 -0.67726,1.3831 -0.85177,1.7653 -0.17415,0.38227 -0.43825,0.98191 -0.58691,1.3321 -0.14866,0.35022 -0.37454,0.89775 -0.50235,1.2163 -0.12742,0.31855 -0.31006,0.78767 -0.40582,1.0425 -0.0958,0.25484 -0.30234,0.82593 -0.4591,1.2688 -0.15677,0.44288 -0.40583,1.19 -0.55332,1.6603 -0.1475,0.4703 -0.35485,1.1588 -0.46065,1.5306 -0.1058,0.37145 -0.27145,0.97962 -0.36798,1.3514 -0.0961,0.37145 -0.24635,0.97962 -0.33323,1.3514 -0.0869,0.37145 -0.25175,1.1448 -0.36643,1.7183 -0.11468,0.57339 -0.26063,1.3553 -0.32396,1.7376 -0.0637,0.38226 -0.15985,0.99893 -0.21353,1.3708 -0.0537,0.37145 -0.14093,1.0491 -0.19383,1.5059 -0.0529,0.45639 -0.13051,1.2298 -0.17221,1.7182 -0.0421,0.48845 -0.0989,1.2267 -0.12665,1.641 -0.0336,0.50042 -0.0506,1.6136 -0.0502,3.3207 0,1.7001 0.017,2.8091 0.0498,3.2821 0.0274,0.39269 0.0842,1.1225 0.12588,1.6217 0.0417,0.49887 0.12008,1.2807 0.17414,1.7376 0.0541,0.45639 0.15059,1.195 0.21469,1.641 0.0641,0.44597 0.18573,1.2009 0.27029,1.6777 0.0846,0.47648 0.21469,1.163 0.28882,1.5252 0.0745,0.36218 0.23014,1.0665 0.34597,1.5658 0.11584,0.49887 0.31585,1.2982 0.44482,1.7754 0.12858,0.47725 0.34442,1.2333 0.47956,1.6796 0.13515,0.44636 0.34984,1.1248 0.47687,1.5071 0.12703,0.38265 0.34674,1.0166 0.48845,1.4094 0.14132,0.39269 0.43902,1.1711 0.66143,1.7298 0.22241,0.55873 0.57842,1.4101 0.79114,1.892 0.21314,0.48188 0.66954,1.4495 1.0144,2.1504 0.34481,0.70079 0.83635,1.6564 1.092,2.1237 0.25562,0.46721 0.61741,1.1101 0.80392,1.4287 0.18688,0.31855 0.50467,0.8483 0.70621,1.1777 0.20194,0.32898 0.63595,1.0066 0.96455,1.5059 0.32859,0.49888 0.80739,1.2028 1.0634,1.5638 0.25639,0.36103 0.70079,0.9692 0.98809,1.3514 0.2869,0.38227 0.79385,1.0336 1.1264,1.448 0.33246,0.41393 0.87302,1.0657 1.2009,1.448 0.32821,0.38227 0.87267,0.99893 1.2101,1.3708 0.33747,0.37145 1.1445,1.2066 1.7932,1.8554 0.64869,0.64869 1.48,1.4522 1.8468,1.7851 0.36721,0.33323 0.98386,0.87726 1.3708,1.2098 0.3869,0.33207 1.0425,0.87614 1.4564,1.2089 0.41432,0.33284 1.0657,0.84024 1.448,1.1275 0.38227,0.28728 1.0213,0.75218 1.4202,1.0336 0.39886,0.2811 1.1028,0.75912 1.5638,1.0623 0.46142,0.30311 1.1078,0.71627 1.4371,0.91823 0.32937,0.20232 0.8676,0.52436 1.197,0.71627 0.32937,0.19229 0.96726,0.55061 1.4182,0.79698 0.4506,0.24635 1.224,0.65024 1.7178,0.89739 0.49424,0.24712 1.246,0.61046 1.6712,0.80663 0.42474,0.19653 1.0591,0.47918 1.4094,0.62822 0.3506,0.14943 0.83593,0.35293 1.0789,0.45293 0.24287,0.0996 0.83364,0.32898 1.3128,0.51008 0.47918,0.1807 1.4098,0.5089 2.0681,0.72863 0.65834,0.22009 1.6576,0.53209 2.2202,0.69348 0.56297,0.1614 1.473,0.40543 2.0225,0.54212 0.54984,0.13631 1.4012,0.334 1.892,0.43864 0.49115,0.10464 1.2839,0.25986 1.7615,0.34443 0.47802,0.0849 1.0947,0.18958 1.3707,0.23283 0.27608,0.0433 0.7626,0.11352 1.0812,0.15638 0.31856,0.0428 0.97032,0.12125 1.448,0.17414 0.47802,0.0533 1.3205,0.13129 1.8727,0.17376 0.55216,0.0425 1.4642,0.0973 2.0268,0.12202 0.64019,0.0278 1.7808,0.0363 3.0504,0.0232 1.214,-0.0127 2.384,-0.046 2.9157,-0.0822 0.48845,-0.0336 1.2703,-0.0965 1.7376,-0.14017 0.46721,-0.0433 1.1364,-0.11274 1.4866,-0.15445 0.3506,-0.0421 0.88927,-0.11159 1.197,-0.15522 0.30813,-0.0433 0.97031,-0.14712 1.4719,-0.23013 0.50196,-0.0834 1.1448,-0.19654 1.4287,-0.25137 0.2842,-0.0549 0.87302,-0.178 1.3082,-0.27337 0.43555,-0.0958 1.2421,-0.28729 1.7932,-0.4259 0.55062,-0.13862 1.3846,-0.36219 1.8534,-0.49694 0.46837,-0.13438 1.3383,-0.40428 1.9329,-0.59966 0.59463,-0.19538 1.4024,-0.47261 1.7955,-0.61626 0.39307,-0.14325 1.0534,-0.39539 1.4673,-0.56026 0.41432,-0.16449 1.0572,-0.42937 1.4287,-0.58846 0.37184,-0.15869 0.99698,-0.43632 1.39,-0.61702 0.39308,-0.18033 1.1923,-0.56839 1.7762,-0.86184 0.58421,-0.29384 1.3831,-0.71044 1.7762,-0.92594 0.39308,-0.21508 1.0271,-0.57494 1.4094,-0.79927 0.38227,-0.22395 1.0163,-0.60776 1.4094,-0.85218 0.39308,-0.24441 1.0707,-0.68305 1.5059,-0.97455 0.43555,-0.29152 1.0784,-0.73406 1.4287,-0.98344 0.35061,-0.24944 0.95879,-0.69773 1.3514,-0.9958 0.39308,-0.29847 1.0097,-0.78038 1.3708,-1.0711 0.36103,-0.29076 0.97302,-0.8008 1.3599,-1.1329 0.3869,-0.33246 1.0035,-0.87691 1.3708,-1.2101 0.36682,-0.33322 1.1978,-1.1364 1.8464,-1.7851 0.64869,-0.64869 1.4519,-1.4796 1.7851,-1.8465 0.33323,-0.3672 0.87809,-0.98386 1.2101,-1.3708 0.33245,-0.38689 0.88309,-1.051 1.2237,-1.4758 0.34018,-0.42473 0.89115,-1.1371 1.224,-1.5831 0.33283,-0.44598 0.78766,-1.0715 1.0104,-1.39 0.22279,-0.31856 0.56181,-0.81392 0.75294,-1.1005 0.19114,-0.28689 0.51278,-0.7819 0.71552,-1.1005 0.20232,-0.31855 0.55525,-0.89079 0.78419,-1.2715 0.22897,-0.38111 0.64869,-1.1109 0.93323,-1.6217 0.28458,-0.51123 0.74948,-1.39 1.0332,-1.9526 0.2838,-0.56298 0.68151,-1.3808 0.88343,-1.8175 0.20195,-0.43671 0.54097,-1.2035 0.75336,-1.7036 0.21237,-0.50042 0.55409,-1.3503 0.75948,-1.8893 0.20541,-0.53904 0.53787,-1.4665 0.73829,-2.0611 0.20078,-0.59464 0.4757,-1.4549 0.61124,-1.9113 0.13553,-0.45679 0.30774,-1.0561 0.38303,-1.3321 0.0749,-0.27608 0.23168,-0.8842 0.3479,-1.3514 0.11622,-0.46721 0.28998,-1.2144 0.38613,-1.6603 0.0961,-0.44597 0.24442,-1.1931 0.33014,-1.6603 0.0853,-0.46722 0.20734,-1.1885 0.27105,-1.6024 0.0637,-0.41431 0.15948,-1.092 0.21237,-1.5059 0.0533,-0.41431 0.13129,-1.1004 0.17376,-1.5252 0.0429,-0.42474 0.10348,-1.1286 0.13553,-1.5638 0.0317,-0.43555 0.0776,-1.2348 0.10194,-1.7762 0.0278,-0.61626 0.0363,-1.7642 0.0235,-3.0697 -0.0127,-1.2746 -0.0444,-2.4225 -0.0815,-2.9539 -0.0336,-0.47802 -0.0876,-1.1641 -0.12047,-1.5252 -0.0328,-0.36103 -0.0942,-0.9692 -0.13669,-1.3514 -0.0425,-0.38226 -0.14557,-1.173 -0.22974,-1.7569 -0.0842,-0.58421 -0.23129,-1.494 -0.32705,-2.0217 -0.0961,-0.52784 -0.2699,-1.3966 -0.38651,-1.9306 -0.11661,-0.53401 -0.30813,-1.353 -0.4259,-1.8202 -0.11815,-0.46721 -0.33631,-1.2754 -0.48497,-1.7955 -0.14904,-0.5205 -0.4676,-1.5368 -0.70815,-2.2588 -0.24056,-0.72204 -0.58923,-1.7125 -0.77531,-2.2009 -0.18611,-0.48845 -0.49038,-1.253 -0.67649,-1.699 -0.18573,-0.44598 -0.51548,-1.202 -0.73211,-1.6796 -0.217,-0.47802 -0.66144,-1.3989 -0.98733,-2.0465 -0.32589,-0.64792 -0.79579,-1.5426 -1.0441,-1.9886 -0.24828,-0.44598 -0.61703,-1.0889 -0.81933,-1.4287 -0.20233,-0.33979 -0.54135,-0.89579 -0.75371,-1.2356 -0.21198,-0.33979 -0.62746,-0.98038 -0.92323,-1.4232 -0.29578,-0.44328 -0.71315,-1.0514 -0.92788,-1.3514 -0.2143,-0.30041 -0.57186,-0.78927 -0.79427,-1.0866 -0.2228,-0.29732 -0.55332,-0.7317 -0.73482,-0.96532 -0.18186,-0.2336 -0.55641,-0.70273 -0.83322,-1.0425 -0.27647,-0.33979 -0.7367,-0.88732 -1.022,-1.2163 -0.28536,-0.32937 -0.77226,-0.87649 -1.0816,-1.2159 -0.30928,-0.3394 -0.97073,-1.0321 -1.47,-1.5391 -0.49887,-0.50699 -1.2375,-1.2302 -1.641,-1.6071 -0.4035,-0.37686 -0.97691,-0.9008 -1.2742,-1.1638 -0.29731,-0.26334 -0.84447,-0.73211 -1.2163,-1.0418 -0.37145,-0.31006 -0.96226,-0.78926 -1.3128,-1.0653 -0.35021,-0.2757 -0.90621,-0.70163 -1.2356,-0.9456 -0.32898,-0.24441 -0.90239,-0.65757 -1.2742,-0.91857 -0.37146,-0.26064 -0.97108,-0.66916 -1.3321,-0.90781 -0.36102,-0.23824 -0.93441,-0.60738 -1.2742,-0.81934 -0.33979,-0.21237 -0.91316,-0.55949 -1.2742,-0.77149 -0.36102,-0.21198 -0.90815,-0.52513 -1.2163,-0.6962 -0.30774,-0.17106 -0.92476,-0.50235 -1.3708,-0.73593 -0.44597,-0.23361 -1.2016,-0.61124 -1.6796,-0.83906 -0.47764,-0.2282 -1.1816,-0.5537 -1.5638,-0.72357 -0.38226,-0.1699 -1.1024,-0.47378 -1.6005,-0.67533 -0.4981,-0.20156 -1.2452,-0.49347 -1.6603,-0.64792 -0.41508,-0.15484 -1.0657,-0.38767 -1.4457,-0.5178 -0.37956,-0.12974 -1.0834,-0.35678 -1.5638,-0.50428 -0.47996,-0.14789 -1.1858,-0.35485 -1.568,-0.46065 -0.38226,-0.10541 -1.0078,-0.27029 -1.39,-0.36605 -0.38226,-0.0958 -1.0078,-0.24365 -1.39,-0.32821 -0.38227,-0.0849 -1.0078,-0.21661 -1.39,-0.29306 -0.38227,-0.0765 -1.1032,-0.20697 -1.6024,-0.28998 -0.49926,-0.083 -1.1591,-0.18612 -1.4673,-0.22936 -0.30774,-0.0433 -0.76836,-0.10464 -1.0232,-0.1363 -0.25485,-0.0321 -0.81087,-0.0931 -1.2356,-0.13631 -0.42473,-0.0429 -1.1198,-0.10348 -1.5445,-0.13475 -0.42474,-0.0309 -1.1893,-0.0738 -1.699,-0.095 -0.50969,-0.0208 -1.3522,-0.0433 -1.8727,-0.0498 z m -0.88808,3.3747 c 0.28689,-0.003 1.0688,0.0116 1.7376,0.0324 0.66916,0.0208 1.6074,0.0645 2.0851,0.0965 0.47802,0.0324 1.2252,0.0938 1.6603,0.13591 0.43555,0.0425 1.1391,0.12124 1.5638,0.17569 0.42473,0.0545 1.0502,0.14171 1.39,0.19384 0.33979,0.0525 0.95413,0.15599 1.365,0.23013 0.41122,0.0738 1.0715,0.20233 1.4673,0.28496 0.39616,0.083 1.0244,0.22279 1.3958,0.31122 0.37184,0.0884 1.0321,0.25561 1.4673,0.37222 0.43555,0.11623 1.0259,0.2811 1.3128,0.36605 0.28689,0.0853 0.82551,0.25137 1.197,0.36914 0.37184,0.11777 1.1101,0.36952 1.641,0.55872 0.53092,0.18959 1.3823,0.51123 1.892,0.7151 0.50969,0.20387 1.3178,0.54405 1.7955,0.756 0.47802,0.2116 1.2727,0.58151 1.7661,0.82128 0.49347,0.24017 1.2144,0.60545 1.6024,0.81239 0.38767,0.20658 0.98309,0.53247 1.3229,0.7244 0.33979,0.19191 0.94795,0.54869 1.3514,0.79309 0.4035,0.24442 1.0464,0.64599 1.4287,0.89274 0.38226,0.24673 1.0163,0.67147 1.4094,0.94406 0.39308,0.27261 1.0534,0.74795 1.4673,1.0564 0.41432,0.30813 1.0398,0.78927 1.39,1.0688 0.35061,0.27955 0.88038,0.71281 1.1777,0.96302 0.29731,0.24982 0.81857,0.70197 1.1584,1.0044 0.33979,0.30233 0.97421,0.8885 1.4094,1.3024 0.43555,0.41392 1.1148,1.0904 1.5101,1.5028 0.39539,0.41238 0.91663,0.96761 1.1584,1.2341 0.24171,0.26604 0.64869,0.7267 0.90393,1.0232 0.25484,0.29654 0.69078,0.81704 0.96837,1.1568 0.27762,0.3398 0.72516,0.90469 0.99469,1.2549 0.26951,0.35022 0.73905,0.98462 1.043,1.4094 0.30427,0.42474 0.7792,1.1109 1.0549,1.5252 0.27608,0.41392 0.67534,1.0309 0.88733,1.3707 0.21237,0.33979 0.50042,0.81163 0.64058,1.0483 0.14055,0.23669 0.41045,0.70585 0.60004,1.0425 0.18959,0.3367 0.55602,1.0136 0.81433,1.5047 0.25833,0.49077 0.65256,1.2804 0.8765,1.7546 0.22395,0.47417 0.55448,1.1989 0.7344,1.6106 0.17955,0.41161 0.44945,1.0557 0.59965,1.431 0.15058,0.37532 0.40852,1.0472 0.57339,1.4932 0.16527,0.44597 0.44869,1.2626 0.63016,1.8148 0.18148,0.55215 0.4344,1.3688 0.5622,1.8148 0.12781,0.44597 0.31083,1.1148 0.40698,1.4866 0.0961,0.37145 0.23708,0.94483 0.31314,1.2742 0.0757,0.32898 0.21392,0.97226 0.30697,1.4287 0.0931,0.4564 0.22203,1.1341 0.28651,1.5059 0.0645,0.37145 0.16951,1.0317 0.23283,1.4673 0.0633,0.43517 0.1587,1.1738 0.2116,1.641 0.0533,0.46721 0.12395,1.1796 0.15715,1.5831 0.0329,0.4035 0.0784,0.98539 0.10078,1.2935 0.0224,0.30774 0.0506,1.4982 0.0622,2.645 0.0135,1.3252 0.005,2.4229 -0.0228,3.0118 -0.0243,0.50969 -0.0703,1.2653 -0.10232,1.6796 -0.0317,0.41392 -0.0934,1.1004 -0.13669,1.5252 -0.0433,0.42474 -0.13051,1.1545 -0.19345,1.6217 -0.0629,0.46721 -0.1753,1.2144 -0.24982,1.6603 -0.0745,0.44597 -0.20542,1.1668 -0.29115,1.6024 -0.0857,0.43516 -0.2336,1.1302 -0.32858,1.5445 -0.0946,0.41393 -0.25099,1.0568 -0.34714,1.4287 -0.0961,0.37145 -0.28727,1.0657 -0.42512,1.5418 -0.13823,0.47648 -0.37338,1.241 -0.5232,1.699 -0.14981,0.45833 -0.38496,1.1456 -0.52281,1.5279 -0.13746,0.38226 -0.412,1.1032 -0.60969,1.6024 -0.1977,0.49887 -0.52397,1.2807 -0.72475,1.7376 -0.20079,0.4564 -0.54367,1.2035 -0.76142,1.6603 -0.21778,0.4564 -0.5873,1.195 -0.8217,1.641 -0.23399,0.44597 -0.54636,1.0279 -0.69461,1.2935 -0.14827,0.26526 -0.44365,0.77801 -0.65679,1.1391 -0.21314,0.36102 -0.57842,0.96031 -0.81205,1.3321 -0.23321,0.37145 -0.62861,0.97962 -0.87843,1.3514 -0.24944,0.37145 -0.64058,0.93635 -0.86837,1.2549 -0.22781,0.31855 -0.59772,0.82246 -0.82128,1.1198 -0.22395,0.29732 -0.60699,0.79232 -0.85142,1.1005 -0.24441,0.30774 -0.66259,0.82052 -0.92899,1.1391 -0.26643,0.31855 -0.70815,0.83093 -0.98191,1.1391 -0.27338,0.30774 -0.85566,0.94024 -1.2939,1.4047 -0.43825,0.46451 -1.1773,1.2082 -1.6418,1.6526 -0.46451,0.44442 -1.151,1.0807 -1.5252,1.4148 -0.37416,0.33362 -0.94101,0.82475 -1.2596,1.0912 -0.31856,0.26643 -0.83094,0.6846 -1.1391,0.929 -0.30774,0.24441 -0.80316,0.62745 -1.1005,0.85142 -0.29732,0.22357 -0.80121,0.59348 -1.1198,0.82128 -0.31855,0.22781 -0.88308,0.61895 -1.2549,0.86836 -0.37146,0.24982 -0.97962,0.64522 -1.3514,0.87844 -0.37145,0.2336 -0.97108,0.59888 -1.3321,0.81204 -0.36102,0.21314 -0.87343,0.50853 -1.1391,0.65642 -0.26526,0.14827 -0.83017,0.45253 -1.2549,0.6761 -0.42474,0.22395 -1.158,0.59116 -1.6294,0.81628 -0.47107,0.22511 -1.175,0.55023 -1.5638,0.7228 -0.38844,0.1726 -1.0626,0.45795 -1.4982,0.63441 -0.43516,0.17685 -1.0784,0.42821 -1.4287,0.55872 -0.35022,0.13089 -1.0194,0.36798 -1.4866,0.52667 -0.46721,0.1587 -1.2144,0.39887 -1.6603,0.53402 -0.44597,0.13514 -1.1371,0.33477 -1.5364,0.44404 -0.39887,0.10928 -1.1198,0.29191 -1.6024,0.4062 -0.48228,0.1143 -1.2592,0.28574 -1.7264,0.38111 -0.46721,0.0954 -1.2665,0.24326 -1.7762,0.32898 -0.50968,0.0857 -1.2395,0.19963 -1.6217,0.25253 -0.38227,0.0533 -1.1121,0.14055 -1.6217,0.19422 -0.50969,0.0533 -1.2653,0.12317 -1.6796,0.15484 -0.41392,0.032 -1.1873,0.078 -1.7182,0.10232 -0.61124,0.0278 -1.7156,0.0363 -3.0118,0.0224 -1.1255,-0.0119 -2.2982,-0.0401 -2.6064,-0.0626 -0.30774,-0.0224 -0.88115,-0.0676 -1.2742,-0.10039 -0.39268,-0.0328 -1.0271,-0.0942 -1.4094,-0.13669 -0.38227,-0.0421 -1.0163,-0.12009 -1.4094,-0.17375 -0.39269,-0.0533 -1.0792,-0.15793 -1.5252,-0.23207 -0.44597,-0.0741 -1.1985,-0.21275 -1.6723,-0.30813 -0.47378,-0.095 -1.2383,-0.25986 -1.699,-0.36604 -0.46065,-0.10657 -1.1676,-0.28187 -1.5712,-0.38922 -0.40351,-0.10773 -1.1854,-0.33206 -1.7376,-0.49887 -0.55216,-0.16681 -1.3341,-0.41508 -1.7376,-0.55216 -0.40351,-0.13707 -1.0464,-0.36528 -1.4287,-0.50775 -0.38226,-0.1421 -1.051,-0.40312 -1.4866,-0.57958 -0.43555,-0.17685 -1.1306,-0.47184 -1.5445,-0.65602 -0.41393,-0.1838 -1.1005,-0.50082 -1.5252,-0.70468 -0.42474,-0.2035 -0.95448,-0.4649 -1.1777,-0.58074 -0.22318,-0.11584 -0.58768,-0.30697 -0.81087,-0.42474 -0.22318,-0.11777 -0.68344,-0.36991 -1.0232,-0.56104 -0.33979,-0.19074 -0.8958,-0.51239 -1.2356,-0.7151 -0.33979,-0.20232 -0.90434,-0.54945 -1.2549,-0.77107 -0.35021,-0.22163 -0.94989,-0.61471 -1.3321,-0.87343 -0.38227,-0.25871 -0.88615,-0.60738 -1.1198,-0.77496 -0.2336,-0.1672 -0.70273,-0.51278 -1.0425,-0.76725 -0.33979,-0.25446 -0.86955,-0.66259 -1.1777,-0.9074 -0.30774,-0.24441 -0.82051,-0.66259 -1.1391,-0.92941 -0.31855,-0.26642 -0.82246,-0.70002 -1.1198,-0.96302 -0.29732,-0.26295 -0.93441,-0.85024 -1.416,-1.3051 -0.48149,-0.45447 -1.2032,-1.1692 -1.604,-1.5878 -0.4008,-0.41856 -0.91045,-0.96107 -1.1333,-1.2051 -0.22241,-0.24442 -0.62243,-0.69621 -0.88885,-1.0039 -0.26643,-0.30813 -0.64985,-0.75989 -0.85177,-1.0039 -0.20233,-0.24442 -0.61857,-0.76573 -0.92518,-1.1584 -0.30658,-0.39308 -0.79114,-1.036 -1.0769,-1.4287 -0.28534,-0.39308 -0.79927,-1.1314 -1.1418,-1.641 -0.34288,-0.50968 -0.82475,-1.2507 -1.0711,-1.6464 -0.24635,-0.39616 -0.68074,-1.1259 -0.96531,-1.6217 -0.2842,-0.49618 -0.73753,-1.3217 -1.0074,-1.8345 -0.26952,-0.51277 -0.67302,-1.3198 -0.89656,-1.7932 -0.22357,-0.47339 -0.55332,-1.1974 -0.73288,-1.6082 -0.17955,-0.41123 -0.48073,-1.1333 -0.66916,-1.6047 -0.18843,-0.47146 -0.45524,-1.17 -0.59309,-1.5522 -0.13784,-0.38226 -0.39308,-1.1294 -0.5676,-1.6603 -0.17415,-0.53092 -0.4286,-1.3553 -0.56529,-1.8322 -0.1363,-0.47686 -0.3506,-1.2762 -0.47609,-1.7762 -0.1251,-0.50003 -0.31469,-1.3178 -0.42165,-1.8167 -0.10657,-0.49926 -0.26295,-1.2985 -0.34751,-1.7762 -0.0849,-0.47802 -0.20735,-1.2337 -0.27222,-1.6796 -0.0653,-0.44598 -0.1614,-1.1931 -0.2143,-1.6603 -0.0529,-0.46722 -0.12202,-1.1623 -0.15406,-1.5445 -0.032,-0.38226 -0.0765,-0.98191 -0.0988,-1.3321 -0.0224,-0.3506 -0.056,-1.2279 -0.0745,-1.9499 -0.0197,-0.76142 -0.0193,-1.8762 7.7e-4,-2.6546 0.0189,-0.73787 0.061,-1.7371 0.0938,-2.2202 0.0324,-0.48304 0.0857,-1.1564 0.11777,-1.4962 0.0321,-0.33979 0.0842,-0.84372 0.11583,-1.1198 0.0313,-0.27608 0.10117,-0.82357 0.15484,-1.2163 0.0537,-0.39308 0.14982,-1.0271 0.21314,-1.4094 0.0637,-0.38227 0.16836,-0.97302 0.23284,-1.3128 0.0645,-0.33979 0.19267,-0.96573 0.28534,-1.3908 0.0927,-0.42513 0.25755,-1.1287 0.36643,-1.5638 0.10889,-0.43478 0.29307,-1.1298 0.40968,-1.5437 0.117,-0.41431 0.33477,-1.1418 0.4842,-1.6171 0.14905,-0.47533 0.39076,-1.2005 0.53711,-1.6121 0.14595,-0.41161 0.40736,-1.1175 0.58073,-1.5685 0.17375,-0.45138 0.4676,-1.1769 0.65332,-1.6121 0.18611,-0.43556 0.46489,-1.0696 0.61973,-1.4094 0.15484,-0.33979 0.54444,-1.1391 0.86607,-1.7762 0.32126,-0.63711 0.76378,-1.4796 0.9831,-1.8727 0.21932,-0.39308 0.62784,-1.0966 0.90816,-1.5642 0.28033,-0.46722 0.68884,-1.1275 0.90739,-1.4673 0.21893,-0.3394 0.54598,-0.83482 0.72746,-1.1 0.18109,-0.26566 0.47763,-0.69117 0.65873,-0.94601 0.18148,-0.25484 0.55988,-0.77031 0.84135,-1.1457 0.28148,-0.37493 0.75413,-0.98538 1.0502,-1.3561 0.29616,-0.37068 0.80468,-0.98462 1.1298,-1.3642 0.32551,-0.37994 0.85219,-0.97726 1.1711,-1.3275 0.31855,-0.3506 1.0661,-1.1244 1.6611,-1.7202 0.59541,-0.5954 1.3692,-1.3437 1.7194,-1.6623 0.3506,-0.31895 0.94136,-0.84101 1.3128,-1.1599 0.37184,-0.31932 0.98851,-0.8317 1.3707,-1.1391 0.38227,-0.30697 1.0078,-0.79274 1.3901,-1.0792 0.38226,-0.28689 0.9035,-0.66954 1.1584,-0.851 0.25485,-0.18109 0.68074,-0.47764 0.94601,-0.65912 0.26566,-0.18147 0.8217,-0.54636 1.2356,-0.81086 0.41393,-0.26449 1.0812,-0.67611 1.4824,-0.91476 0.40118,-0.23862 1.043,-0.60853 1.426,-0.82204 0.38304,-0.21353 1.1148,-0.60236 1.626,-0.86337 0.51123,-0.2614 1.3113,-0.65255 1.7781,-0.86878 0.46644,-0.21662 1.2051,-0.54559 1.641,-0.73134 0.43555,-0.18612 1.1614,-0.47996 1.6128,-0.65372 0.451,-0.17336 1.1568,-0.43478 1.5685,-0.58073 0.41162,-0.14634 1.1368,-0.38766 1.6121,-0.5371 0.47532,-0.14943 1.1684,-0.35833 1.5398,-0.46451 0.37184,-0.10618 1.0927,-0.29693 1.6024,-0.42435 0.50968,-0.12703 1.2916,-0.30967 1.7376,-0.40543 0.44598,-0.0961 1.141,-0.23515 1.5445,-0.30929 0.4035,-0.0741 1.0116,-0.17878 1.3514,-0.23245 0.33979,-0.0537 0.93941,-0.14093 1.3321,-0.19383 0.39307,-0.0529 1.1491,-0.14017 1.6796,-0.19345 0.53092,-0.0533 1.373,-0.12472 1.8715,-0.1587 0.49849,-0.034 1.341,-0.0753 1.8727,-0.0915 0.53169,-0.0162 1.2012,-0.0321 1.4878,-0.0348 z m -2.7608,14.439 c -8.1128,0.003 -14.852,0.0197 -14.977,0.0378 -0.12433,0.0181 -0.39269,0.0772 -0.59617,0.13167 -0.20311,0.0541 -0.52745,0.17299 -0.7201,0.2645 -0.19306,0.0911 -0.48073,0.25137 -0.63943,0.35523 -0.1587,0.10426 -0.44365,0.33748 -0.63285,0.51818 -0.18882,0.18109 -0.44212,0.46065 -0.56221,0.62205 -0.12008,0.16102 -0.29885,0.4483 -0.39693,0.63788 -0.0981,0.18997 -0.2228,0.47841 -0.27724,0.64058 -0.0544,0.16256 -0.12897,0.41393 -0.16527,0.55911 l -0.0664,0.26334 -0.0112,19.181 -0.0116,19.181 1.9793,-0.0101 1.9793,-0.0101 0.0193,-18.966 0.0193,-18.965 0.0796,-0.10696 c 0.044,-0.0587 0.14557,-0.15985 0.22588,-0.22472 l 0.1507,-0.11737 13.877,-0.01 13.876,-0.01 v 5.6863 c 3.9e-4,4.9285 0.008,5.7344 0.0595,6.0513 0.0328,0.20117 0.1112,0.52088 0.17491,0.71009 0.0633,0.18959 0.20156,0.51123 0.30697,0.71551 0.10542,0.20426 0.27763,0.48498 0.38266,0.62476 0.10541,0.13939 0.30928,0.37261 0.4537,0.51857 0.1444,0.14595 0.40079,0.36759 0.56991,0.49308 0.16913,0.1251 0.49965,0.32202 0.73517,0.43748 0.25986,0.12742 0.60931,0.2587 0.89003,0.33439 l 0.46219,0.1251 5.8402,0.0104 5.8402,0.0108 v 50.352 l -0.0734,0.14325 c -0.0406,0.0788 -0.1143,0.18033 -0.16411,0.2255 -0.0498,0.0456 -0.14634,0.11043 -0.2143,0.1448 l -0.12356,0.0626 h -18.605 v 3.9783 l 9.5469,-0.0116 9.5469,-0.0116 0.32821,-0.0819 c 0.1807,-0.0452 0.47377,-0.13553 0.65139,-0.2004 0.17762,-0.0653 0.43825,-0.18148 0.57919,-0.25832 0.14093,-0.0772 0.39153,-0.23746 0.55679,-0.356 0.16565,-0.11855 0.44404,-0.36451 0.61896,-0.54637 0.17492,-0.18187 0.41701,-0.47957 0.53826,-0.66182 0.12124,-0.18225 0.27878,-0.46026 0.35022,-0.6178 0.0714,-0.15754 0.1668,-0.39964 0.21237,-0.53749 0.0452,-0.13823 0.11235,-0.37261 0.14904,-0.52127 l 0.0672,-0.27029 0.0112,-26.218 0.0112,-26.218 -9.0448,-9.0448 -9.042,-9.0441 z m 17.122,7.9885 c 0.0162,0 1.7665,1.7376 3.8902,3.8613 l 3.8612,3.8612 h -3.5852 c -3.2091,0 -3.5987,-0.007 -3.7157,-0.0618 -0.0714,-0.034 -0.18959,-0.12781 -0.26218,-0.20812 -0.0877,-0.0969 -0.14596,-0.21237 -0.17453,-0.34519 -0.0297,-0.13746 -0.0429,-1.2727 -0.0429,-3.6535 0,-1.8997 0.0131,-3.4539 0.029,-3.4539 z m -27.05,36.881 c -0.54598,0.003 -1.0618,0.0119 -1.1468,0.0189 -0.085,0.007 -0.4062,0.0406 -0.71433,0.0745 -0.30774,0.034 -0.79427,0.10425 -1.0812,0.15638 -0.28651,0.0525 -0.73829,0.14788 -1.0039,0.21275 -0.26527,0.0645 -0.73364,0.19539 -1.0406,0.29037 -0.30697,0.095 -0.82441,0.27724 -1.1499,0.40466 -0.32511,0.12781 -0.91705,0.39385 -1.3144,0.59193 -0.39771,0.19809 -0.95761,0.50197 -1.2445,0.67572 -0.28651,0.17376 -0.72093,0.4564 -0.96532,0.62823 -0.24403,0.17143 -0.64367,0.47223 -0.88809,0.66799 -0.24403,0.19539 -0.65255,0.5456 -0.90739,0.77767 -0.25484,0.23246 -0.63981,0.6124 -0.85524,0.84483 -0.21546,0.23206 -0.50737,0.55872 -0.64869,0.72551 -0.14133,0.16719 -0.38343,0.47145 -0.53826,0.67572 -0.15484,0.20464 -0.40968,0.56335 -0.56606,0.79697 -0.15638,0.23361 -0.40389,0.62437 -0.54946,0.86878 -0.14557,0.24403 -0.41045,0.73941 -0.58807,1.1005 -0.17801,0.36103 -0.41895,0.89386 -0.53555,1.1839 -0.11661,0.29036 -0.29192,0.7769 -0.38999,1.0812 -0.0981,0.30465 -0.23708,0.78808 -0.3089,1.075 -0.0718,0.2865 -0.17415,0.74718 -0.22704,1.0232 -0.0529,0.27608 -0.12318,0.71899 -0.15638,0.98462 -0.0328,0.26527 -0.0799,0.76065 -0.10426,1.1005 -0.0263,0.36219 -0.0351,0.9692 -0.0224,1.4673 0.0124,0.46721 0.0502,1.1016 0.0846,1.4094 0.0344,0.30774 0.1058,0.81205 0.1587,1.1198 0.0529,0.30774 0.14596,0.76836 0.20735,1.0232 0.0614,0.25484 0.18071,0.69271 0.26527,0.97268 0.0849,0.28033 0.22356,0.69967 0.3089,0.93211 0.085,0.23245 0.22781,0.59387 0.31662,0.80351 0.0892,0.20928 0.2838,0.62398 0.43246,0.92128 0.14866,0.29732 0.34945,0.67958 0.44598,0.84948 0.0965,0.16989 0.33902,0.55949 0.53903,0.86607 0.19963,0.3062 0.51741,0.75913 0.70544,1.0062 0.18843,0.24712 0.50622,0.63904 0.70663,0.87149 0.20001,0.23245 0.63092,0.68382 0.9576,1.0032 0.32628,0.31933 0.75295,0.71315 0.94796,0.87496 0.19538,0.16218 0.52706,0.42474 0.73752,0.58421 0.21044,0.15948 0.60661,0.4371 0.88073,0.61665 0.27415,0.17993 0.67109,0.42627 0.88149,0.54713 0.21083,0.12086 0.60352,0.33014 0.87267,0.4649 0.26913,0.13476 0.72204,0.34365 1.0066,0.46374 0.28496,0.12008 0.82246,0.32048 1.195,0.4452 0.37261,0.12472 0.95837,0.29616 1.3024,0.38072 0.34365,0.0849 0.89038,0.19847 1.2148,0.25291 0.32434,0.0544 0.83288,0.12472 1.1302,0.156 0.29732,0.0312 0.87073,0.068 1.2742,0.0815 0.42822,0.0143 1.0294,0.006 1.4437,-0.0201 0.39076,-0.0247 0.96955,-0.0792 1.2858,-0.12163 0.31662,-0.0421 0.79656,-0.12124 1.0661,-0.17569 0.2699,-0.0544 0.72475,-0.15946 1.0113,-0.23321 0.2865,-0.0741 0.75565,-0.21276 1.0425,-0.3089 0.28689,-0.0958 0.74829,-0.26682 1.0252,-0.38034 0.27685,-0.11351 0.72009,-0.31083 0.98462,-0.43864 0.26449,-0.1278 0.68962,-0.34905 0.94448,-0.49153 0.25484,-0.14248 0.6622,-0.38806 0.90468,-0.54599 0.24287,-0.15831 0.60776,-0.41045 0.81087,-0.56104 0.20348,-0.15059 0.50852,-0.38535 0.67842,-0.52165 0.16989,-0.1363 0.53787,-0.45602 0.81822,-0.71009 0.27994,-0.25407 0.72322,-0.69732 0.98462,-0.98462 0.26141,-0.28767 0.63673,-0.72552 0.83364,-0.97268 0.19693,-0.24751 0.52938,-0.70197 0.73864,-1.0097 0.20889,-0.30813 0.51316,-0.79156 0.67572,-1.0746 0.16256,-0.28304 0.38149,-0.68654 0.4869,-0.89622 0.10503,-0.20967 0.29385,-0.62089 0.41895,-0.91399 0.12511,-0.29268 0.31508,-0.78656 0.42242,-1.0974 0.10696,-0.31044 0.25678,-0.78809 0.33245,-1.0618 0.0757,-0.27338 0.18882,-0.74016 0.25137,-1.0375 0.0626,-0.29731 0.14866,-0.79273 0.19152,-1.1004 0.0425,-0.30774 0.0981,-0.81934 0.12318,-1.1368 0.029,-0.36489 0.0378,-0.96143 0.0243,-1.6217 -0.0119,-0.57649 -0.0494,-1.27 -0.0838,-1.5468 -0.034,-0.27608 -0.0969,-0.70815 -0.13939,-0.96032 -0.0429,-0.25175 -0.12935,-0.68035 -0.1919,-0.95177 -0.0629,-0.27145 -0.17647,-0.70815 -0.25253,-0.97031 -0.0765,-0.26218 -0.21623,-0.69156 -0.3116,-0.95372 -0.095,-0.26218 -0.25176,-0.66182 -0.34829,-0.88809 -0.0965,-0.22627 -0.29229,-0.64599 -0.43516,-0.93288 -0.14287,-0.28689 -0.34404,-0.66915 -0.44675,-0.84948 -0.10271,-0.18032 -0.35022,-0.57841 -0.55023,-0.88503 -0.19963,-0.3062 -0.51972,-0.76218 -0.71086,-1.0132 -0.19113,-0.2506 -0.5344,-0.66916 -0.7626,-0.92941 -0.2282,-0.26025 -0.66761,-0.71822 -0.97691,-1.0175 -0.30929,-0.29925 -0.81163,-0.74406 -1.1167,-0.98851 -0.30504,-0.24481 -0.75412,-0.58383 -0.99851,-0.75412 -0.24403,-0.17029 -0.66993,-0.44521 -0.94601,-0.61124 -0.27608,-0.16604 -0.76259,-0.43439 -1.0812,-0.59657 -0.31855,-0.16256 -0.79155,-0.38458 -1.0514,-0.49347 -0.25947,-0.10927 -0.75488,-0.29576 -1.1004,-0.41469 -0.34559,-0.11893 -0.85413,-0.2757 -1.1302,-0.34829 -0.27608,-0.0726 -0.71045,-0.17491 -0.96532,-0.22743 -0.25484,-0.0525 -0.70662,-0.13012 -1.0039,-0.17259 -0.29732,-0.0421 -0.76302,-0.0954 -1.0348,-0.11777 -0.27222,-0.0224 -0.94101,-0.0374 -1.4866,-0.034 z m 0.3591,2.7975 c 0.42473,0.008 1.007,0.0413 1.2935,0.0734 0.28689,0.0317 0.71391,0.0927 0.94948,0.13553 0.23553,0.0425 0.64058,0.12935 0.90045,0.19268 0.25947,0.0633 0.71433,0.19422 1.0105,0.29114 0.29655,0.0969 0.75065,0.26333 1.0097,0.3699 0.25909,0.10619 0.70621,0.31276 0.99386,0.45872 0.28727,0.14596 0.76142,0.41238 1.0537,0.59232 0.29191,0.18032 0.76107,0.50003 1.0425,0.71128 0.2811,0.21121 0.67919,0.53362 0.88461,0.71662 0.20542,0.18264 0.56529,0.52822 0.79927,0.7676 0.23399,0.23979 0.58073,0.62243 0.77031,0.85066 0.1892,0.2282 0.46374,0.58305 0.61007,0.7885 0.14596,0.2058 0.39231,0.57494 0.54714,0.82093 0.15484,0.24557 0.44482,0.7769 0.64406,1.1804 0.19924,0.4035 0.44946,0.96802 0.55602,1.2549 0.10619,0.2865 0.26334,0.76183 0.34945,1.0557 0.0857,0.29385 0.19885,0.7367 0.25098,0.98462 0.0525,0.24751 0.13051,0.69349 0.17375,0.99081 0.0433,0.29731 0.0981,0.87378 0.12125,1.2807 0.0312,0.54173 0.0312,0.92712 0,1.4391 -0.0235,0.38419 -0.0688,0.89385 -0.0996,1.1325 -0.0312,0.23863 -0.0927,0.61587 -0.13669,0.83906 -0.0436,0.22318 -0.12974,0.60506 -0.19114,0.84948 -0.0614,0.24403 -0.1834,0.66104 -0.27105,0.9267 -0.088,0.26526 -0.23747,0.67379 -0.33284,0.90739 -0.095,0.23361 -0.29964,0.67649 -0.45409,0.98462 -0.15445,0.30774 -0.38149,0.72475 -0.50389,0.9267 -0.1224,0.20156 -0.35369,0.55757 -0.51316,0.7908 -0.15985,0.23283 -0.3869,0.54559 -0.50467,0.69502 -0.11776,0.14904 -0.38689,0.46722 -0.59849,0.70663 -0.21121,0.23978 -0.56838,0.61124 -0.79385,0.82517 -0.22549,0.2143 -0.61857,0.55756 -0.87343,0.76259 -0.25485,0.20504 -0.63055,0.48961 -0.83483,0.63209 -0.20464,0.14249 -0.56065,0.37261 -0.79155,0.51162 -0.23129,0.13939 -0.63711,0.36334 -0.90275,0.49849 -0.26526,0.13475 -0.65409,0.31778 -0.86378,0.40659 -0.20967,0.0888 -0.57185,0.23013 -0.8051,0.31353 -0.23322,0.0834 -0.67611,0.22086 -0.98462,0.30542 -0.30851,0.0846 -0.78037,0.19616 -1.0483,0.24828 -0.26836,0.0517 -0.73093,0.12588 -1.0282,0.16411 -0.41393,0.0537 -0.80698,0.0699 -1.6796,0.0703 -0.7151,3.9e-4 -1.29,-0.0185 -1.5445,-0.0506 -0.2228,-0.0282 -0.65062,-0.0931 -0.95066,-0.14402 -0.29964,-0.0513 -0.75142,-0.14634 -1.0039,-0.21083 -0.25214,-0.0649 -0.73829,-0.21198 -1.08,-0.32666 -0.34172,-0.11507 -0.84559,-0.30697 -1.1198,-0.42629 -0.27415,-0.11931 -0.68074,-0.3143 -0.90393,-0.43361 -0.22318,-0.11893 -0.58459,-0.3255 -0.80315,-0.45911 -0.21893,-0.13359 -0.56452,-0.35909 -0.76802,-0.50119 -0.20387,-0.14209 -0.51934,-0.37762 -0.70079,-0.5232 -0.18186,-0.14595 -0.53439,-0.44868 -0.78385,-0.67263 -0.24905,-0.22395 -0.63787,-0.61317 -0.86454,-0.86489 -0.22627,-0.25175 -0.55139,-0.63749 -0.72204,-0.85684 -0.17106,-0.21932 -0.4483,-0.60351 -0.61587,-0.85371 -0.16797,-0.25021 -0.42551,-0.66645 -0.57301,-0.92518 -0.14712,-0.25832 -0.37917,-0.71391 -0.51548,-1.0124 -0.1363,-0.29809 -0.33554,-0.77802 -0.4425,-1.0661 -0.10657,-0.28805 -0.26489,-0.78232 -0.35137,-1.0982 -0.0869,-0.31546 -0.20079,-0.8008 -0.25369,-1.0784 -0.0529,-0.27724 -0.12317,-0.70434 -0.15677,-0.9483 -0.0332,-0.24442 -0.0703,-0.87073 -0.0826,-1.3924 -0.0139,-0.5981 -0.005,-1.1607 0.0243,-1.5229 0.0255,-0.31624 0.0892,-0.83635 0.14171,-1.1561 0.0521,-0.31971 0.1475,-0.79579 0.21198,-1.058 0.0645,-0.2618 0.19383,-0.7151 0.28766,-1.007 0.0942,-0.29192 0.25755,-0.74059 0.36296,-0.99775 0.10541,-0.25677 0.31237,-0.70697 0.45988,-1.0004 0.14712,-0.29385 0.34983,-0.67302 0.45061,-0.84295 0.10078,-0.1699 0.27878,-0.45447 0.39577,-0.63209 0.117,-0.17762 0.33825,-0.49038 0.49115,-0.69502 0.1533,-0.20465 0.44366,-0.56298 0.64522,-0.79656 0.20195,-0.23361 0.59657,-0.64599 0.87726,-0.91663 0.2811,-0.27029 0.67958,-0.62785 0.88614,-0.79385 0.20658,-0.16604 0.55602,-0.43092 0.77691,-0.58845 0.22086,-0.15755 0.62822,-0.42359 0.90545,-0.59078 0.27724,-0.16719 0.74752,-0.42242 1.0448,-0.56722 0.29731,-0.1448 0.75794,-0.34982 1.0232,-0.45524 0.26566,-0.10541 0.64908,-0.24481 0.85218,-0.30929 0.20311,-0.0649 0.568,-0.17027 0.81087,-0.23399 0.24287,-0.0641 0.67611,-0.16024 0.9626,-0.21352 0.2869,-0.0533 0.76455,-0.12356 1.0618,-0.156 0.29732,-0.0324 0.65371,-0.0656 0.79156,-0.0741 0.13823,-0.008 0.59849,-0.008 1.0232,0 z m -0.19307,5.5899 c -0.29808,-0.01 -0.48574,0.002 -0.62899,0.0428 -0.11275,0.0313 -0.29925,0.10349 -0.41509,0.16025 -0.11583,0.0567 -0.29191,0.18302 -0.39075,0.28033 -0.0992,0.0977 -0.21623,0.25522 -0.26064,0.35098 l -0.0807,0.17376 -0.0112,2.9635 -0.0108,2.9635 -2.9237,10e-4 c -2.3596,0.001 -2.9516,0.012 -3.0701,0.054 -0.0807,0.029 -0.21584,0.1004 -0.30002,0.1587 -0.0842,0.0583 -0.22241,0.21005 -0.30736,0.33709 -0.0845,0.12704 -0.19306,0.35447 -0.24055,0.50583 -0.068,0.217 -0.0857,0.36064 -0.0826,0.68035 0.003,0.31122 0.0239,0.46374 0.09,0.65641 0.0471,0.13785 0.13823,0.33323 0.20194,0.43323 0.0641,0.1004 0.17878,0.23747 0.25523,0.30427 0.0765,0.0672 0.20967,0.15406 0.29578,0.19345 l 0.15715,0.0714 2.962,6.9e-4 2.9623,7e-4 0.0108,2.9828 0.0112,2.9828 0.10309,0.19538 c 0.0568,0.10772 0.17337,0.25908 0.25948,0.3367 0.0857,0.0776 0.23978,0.18341 0.34249,0.23553 0.10232,0.0517 0.2811,0.12125 0.39694,0.15407 0.11583,0.0328 0.31508,0.0703 0.4425,0.083 0.13977,0.0139 0.35716,7e-4 0.54791,-0.0336 0.17878,-0.0321 0.42744,-0.1112 0.57146,-0.18225 0.16334,-0.0803 0.32203,-0.19885 0.44212,-0.33014 0.10618,-0.11622 0.21391,-0.2838 0.24905,-0.38689 0.0548,-0.16102 0.0622,-0.52282 0.0622,-3.1098 v -2.9276 h 5.9472 l 0.17106,-0.0803 c 0.0942,-0.0444 0.25175,-0.1668 0.35021,-0.27221 0.0988,-0.10542 0.22859,-0.29963 0.28844,-0.43169 0.0598,-0.13206 0.13051,-0.34983 0.15677,-0.48343 0.0294,-0.14904 0.039,-0.37338 0.0251,-0.5788 -0.0124,-0.18418 -0.0583,-0.43787 -0.10233,-0.56374 -0.0436,-0.1255 -0.1336,-0.31316 -0.20001,-0.41664 -0.0664,-0.10347 -0.19384,-0.24789 -0.28342,-0.32125 -0.0892,-0.073 -0.23669,-0.15909 -0.32781,-0.19152 -0.14248,-0.0502 -0.57842,-0.0583 -3.0956,-0.0583 h -2.9328 l -3.9e-4,-2.9056 c 0,-1.8584 -0.0143,-2.9569 -0.0394,-3.0477 -0.0216,-0.078 -0.0954,-0.22511 -0.16411,-0.32705 -0.0683,-0.10193 -0.217,-0.24982 -0.33013,-0.32859 -0.11314,-0.0788 -0.31277,-0.18109 -0.44405,-0.22743 -0.17259,-0.0606 -0.35523,-0.088 -0.66297,-0.0988 z"
       id="icon" /></g></svg>